# xmcd CD database file
#
# Track frame offsets:
#	150
#	20328
#	48748
#	90972
#	111808
#	134497
#	157042
#	180988
#	198973
#	228682
#	261804
#
# Disc length: 3652 seconds
#
# Revision: 0
# Processed by: cddbd v1.5.2PL0 Copyright (c) Steve Scherf et al.
# Submitted via: CDex 1.70beta2
#
DISCID=8e0e420b
DTITLE=Buddy Guy - Buddy's Blues - The Best Of The JSP Sessions 1979-82
DYEAR=1900
DGENRE=Blues
TTITLE0=She Suits Me To A T
TTITLE1=Have You Ever Been Lonesome
TTITLE2=Tell Me What's Inside Of You
TTITLE3=Girl You're Nice and Clean
TTITLE4=She Winked Her Eye
TTITLE5=Me and My Guitar
TTITLE6=DJ Play My Blues
TTITLE7=Buddy's Blues Part 1
TTITLE8=The Dollar Done Fell
TTITLE9=Breaking Out On Top
TTITLE10=Comin' On
EXTD=
EXTT0=
EXTT1=
EXTT2=
EXTT3=
EXTT4=
EXTT5=
EXTT6=
EXTT7=
EXTT8=
EXTT9=
EXTT10=
PLAYORDER=
